<?xml version="1.0" standalone="no"?>
<!DOCTYPE svg PUBLIC "-//W3C//DTD SVG 20010904//EN"
 "http://www.w3.org/TR/2001/REC-SVG-20010904/DTD/svg10.dtd">
<svg version="1.0" xmlns="http://www.w3.org/2000/svg"
 width="500.000000pt" height="500.000000pt" viewBox="0 0 500.000000 500.000000"
 preserveAspectRatio="xMidYMid meet">
<metadata>
Created by potrace 1.14, written by Peter Selinger 2001-2017
</metadata>
<g transform="translate(0.000000,500.000000) scale(0.100000,-0.100000)"
fill="#000000" stroke="none">
<path d="M2448 4955 c-2 -2 -48 -6 -103 -9 -55 -2 -100 -5 -100 -6 0 -1 -20
-3 -45 -5 -25 -2 -58 -6 -75 -9 -16 -3 -43 -8 -60 -11 -104 -19 -170 -32 -170
-35 0 -1 -7 -3 -15 -5 -42 -10 -154 -46 -227 -73 -45 -17 -84 -28 -87 -24 -3
3 -6 1 -6 -5 0 -9 -34 -24 -44 -20 -2 1 -12 -5 -22 -14 -11 -9 -31 -19 -46
-23 -15 -3 -34 -13 -42 -22 -9 -8 -16 -13 -16 -9 0 6 -91 -44 -100 -56 -5 -6
-52 -33 -60 -34 -8 -1 -64 -39 -70 -46 -3 -4 -12 -9 -20 -11 -8 -2 -21 -9 -28
-16 -8 -7 -49 -38 -91 -69 -95 -71 -86 -64 -151 -119 -98 -82 -150 -133 -150
-146 0 -7 31 -43 68 -80 l68 -67 44 42 c40 38 131 115 183 157 11 8 25 21 32
28 8 6 18 12 24 12 6 0 11 4 11 9 0 5 15 18 33 30 17 11 41 26 52 33 11 7 23
18 27 23 5 7 8 7 8 0 0 -5 6 -3 13 5 14 18 67 53 67 45 0 -4 7 0 15 7 29 26
45 38 47 37 2 -1 22 8 45 19 l42 22 23 -23 c13 -12 37 -48 53 -79 17 -32 33
-58 38 -58 4 0 7 -9 7 -20 0 -11 4 -20 9 -20 5 0 14 -13 21 -30 7 -16 16 -30
21 -30 5 0 9 -5 9 -10 0 -10 77 -139 90 -150 10 -9 70 -100 70 -106 0 -7 147
-221 164 -241 6 -6 29 -33 51 -58 22 -26 55 -61 73 -78 25 -24 32 -38 32 -69
0 -51 -12 -71 -55 -97 -34 -20 -48 -20 -93 2 -17 8 -30 7 -57 -6 -19 -9 -35
-21 -35 -27 0 -12 -55 -8 -91 8 -35 14 -50 11 -79 -16 -13 -12 -29 -23 -34
-23 -24 -3 -52 4 -69 16 -27 19 -64 9 -98 -25 -26 -26 -32 -28 -62 -19 -52 16
-61 17 -82 6 -47 -23 -53 -40 -53 -135 0 -90 -6 -117 -22 -107 -4 3 -13 -2
-20 -10 -7 -8 -16 -12 -21 -9 -5 3 -9 -2 -9 -11 0 -9 -4 -13 -10 -10 -5 3 -10
-2 -10 -11 0 -10 -3 -15 -6 -12 -3 4 -21 0 -40 -8 -19 -8 -34 -12 -34 -9 0 3
-13 -1 -29 -9 -16 -9 -43 -18 -61 -21 -19 -3 -37 -8 -42 -11 -8 -5 -17 -7 -83
-20 -41 -8 -111 -16 -245 -28 -36 -4 -81 -8 -100 -11 -19 -2 -73 -7 -120 -11
-47 -3 -104 -7 -127 -8 -34 -3 -44 0 -48 15 -8 23 -4 80 6 94 4 6 10 27 13 49
4 21 9 43 13 49 4 7 8 18 9 27 1 8 13 48 27 88 14 39 23 72 20 72 -3 0 1 8 10
18 8 9 16 20 17 24 7 33 16 57 36 97 13 25 24 52 24 59 0 6 4 12 9 12 10 0 27
39 23 53 -1 4 3 7 10 7 6 0 8 3 5 6 -4 4 3 15 15 25 11 11 18 19 14 19 -4 0 2
14 14 30 12 17 18 30 13 30 -4 0 -3 4 3 8 6 4 25 30 44 57 19 28 36 52 39 55
7 6 31 48 31 54 0 13 -152 117 -164 113 -26 -10 -228 -323 -253 -394 -3 -10
-21 -50 -39 -90 -18 -40 -36 -85 -40 -100 -4 -15 -11 -33 -15 -39 -5 -6 -10
-19 -12 -30 -4 -19 -11 -39 -27 -79 -10 -24 -49 -178 -55 -220 -3 -16 -12 -67
-19 -111 -25 -139 -30 -214 -31 -384 0 -147 8 -288 20 -345 2 -11 7 -38 9 -60
3 -22 8 -51 11 -65 3 -14 7 -34 9 -45 2 -11 9 -40 16 -65 7 -25 14 -56 16 -70
13 -73 94 -281 170 -436 67 -137 77 -147 116 -118 7 5 27 16 43 24 17 8 36 21
43 28 8 6 22 17 33 23 19 10 18 13 -18 77 -75 136 -142 299 -177 432 -49 180
-91 480 -69 493 8 5 66 16 113 22 14 2 25 4 25 5 0 2 36 9 80 15 22 3 49 7 60
9 11 2 45 7 75 11 80 9 112 14 138 20 63 14 134 28 207 41 23 3 43 8 105 24
25 6 51 12 58 12 6 1 12 5 12 10 0 5 5 6 10 3 6 -3 10 -1 10 6 0 7 3 10 6 6 8
-7 117 32 125 45 3 5 10 10 15 10 5 0 19 4 30 8 29 11 85 -3 123 -30 17 -13
31 -26 32 -29 3 -18 20 -213 25 -281 3 -46 -1 -61 -22 -92 -33 -47 -35 -65
-11 -105 l19 -34 -26 -39 c-30 -46 -32 -65 -10 -108 17 -34 12 -65 -14 -95
-23 -26 -24 -54 -5 -90 22 -42 22 -46 2 -88 -18 -36 -19 -47 -6 -86 7 -20 16
-27 42 -33 6 -1 22 -11 37 -21 25 -18 26 -23 22 -77 -7 -81 -11 -117 -14 -117
-1 0 -4 -20 -6 -45 -5 -38 -23 -123 -39 -180 -2 -8 -20 -75 -39 -147 -19 -73
-37 -137 -40 -141 -3 -5 -7 -19 -10 -33 -15 -76 -39 -146 -53 -156 -12 -10
-21 -9 -42 3 -36 20 -65 38 -71 44 -3 3 -41 32 -84 64 -43 32 -90 68 -105 80
-32 27 -232 226 -227 226 2 0 -10 15 -28 33 -49 51 -81 90 -101 125 -11 18
-25 32 -32 32 -18 0 -103 -56 -96 -64 3 -3 -1 -6 -10 -6 -17 0 -57 -29 -57
-41 0 -6 77 -112 115 -158 75 -91 250 -267 297 -299 13 -9 46 -34 73 -57 66
-54 147 -111 204 -142 25 -15 48 -29 51 -32 3 -3 23 -15 45 -26 22 -11 42 -23
45 -27 3 -3 28 -15 56 -26 27 -11 67 -30 87 -41 21 -12 42 -21 48 -21 5 0 29
-9 52 -21 46 -22 257 -97 297 -105 14 -3 52 -12 85 -20 33 -8 74 -16 90 -19
17 -3 44 -8 60 -11 17 -4 46 -8 65 -9 19 -1 76 -6 125 -10 191 -17 385 -10
595 21 63 9 71 18 64 73 -3 25 -8 55 -11 66 -2 11 -5 29 -7 41 -6 41 -16 47
-56 31 -8 -3 -22 -5 -30 -5 -8 0 -26 -3 -40 -6 -82 -16 -144 -20 -310 -21
-102 0 -214 4 -250 8 -36 4 -79 9 -96 11 -17 2 -41 7 -55 11 -13 5 -37 9 -54
11 -16 1 -30 3 -30 4 0 2 -20 6 -62 13 -18 3 -53 13 -79 23 -45 17 -46 18 -41
58 2 23 11 68 20 101 9 33 18 76 21 95 3 19 8 46 11 60 8 40 17 84 20 105 5
41 17 102 31 168 8 37 12 72 9 78 -4 5 -3 9 2 9 4 0 8 10 9 23 1 21 12 99 20
142 7 39 17 130 16 152 -1 14 6 24 21 29 12 4 22 6 22 4 0 -14 95 51 128 86
l42 46 60 -6 c101 -10 126 -13 130 -17 2 -2 6 -20 9 -39 7 -50 37 -71 92 -65
57 5 69 0 92 -39 20 -33 57 -52 68 -35 3 5 20 9 38 9 24 0 38 -7 52 -27 37
-51 54 -64 76 -58 43 14 89 8 105 -15 35 -50 120 -41 155 16 22 37 36 67 34
76 0 4 9 15 22 24 18 13 40 15 100 11 72 -4 92 -7 145 -22 33 -9 133 -52 214
-92 40 -19 74 -33 77 -31 2 1 13 -5 24 -15 11 -10 27 -19 35 -21 8 -1 25 -8
38 -16 13 -9 53 -30 89 -48 70 -36 90 -47 132 -74 14 -10 32 -18 40 -18 7 0
19 -9 25 -20 11 -16 8 -24 -15 -52 -33 -40 -62 -69 -62 -64 0 3 -22 -17 -48
-42 -53 -51 -63 -60 -137 -115 -27 -20 -55 -40 -60 -45 -20 -16 -126 -82 -132
-82 -3 0 -14 -6 -22 -14 -9 -7 -50 -31 -91 -52 -41 -21 -78 -43 -81 -47 -3 -5
-10 -9 -15 -9 -5 0 -20 -5 -34 -11 -14 -6 -27 -11 -30 -12 -6 -2 -34 -14 -102
-44 -27 -11 -48 -18 -48 -14 0 3 -7 0 -15 -7 -8 -7 -15 -10 -15 -6 0 4 -13 0
-29 -9 -26 -13 -29 -18 -21 -44 4 -15 14 -39 21 -52 7 -13 12 -25 11 -26 -1
-2 -2 -4 -1 -5 0 -2 3 -14 5 -28 8 -46 24 -52 84 -33 30 9 57 17 60 18 13 4
52 21 125 55 44 20 90 40 102 44 11 4 27 13 33 21 7 8 21 15 31 15 11 0 19 5
19 11 0 5 5 7 10 4 6 -3 10 -1 10 4 0 6 7 11 15 11 8 0 15 5 15 10 0 6 7 10
15 10 8 0 15 4 15 10 0 5 3 9 8 8 7 -3 83 40 92 52 3 4 16 13 30 20 24 13 123
84 146 105 6 6 23 19 39 30 76 55 321 293 385 375 19 25 38 46 42 48 4 2 8 10
8 17 0 8 6 18 13 22 8 4 22 23 32 40 11 18 23 33 27 33 4 0 8 7 8 15 0 9 7 18
15 21 8 4 13 10 10 14 -3 5 2 15 10 23 8 9 15 20 15 26 0 6 4 11 8 11 4 0 18
19 30 43 12 23 26 49 31 57 17 26 66 115 67 120 1 8 26 64 35 80 5 8 11 20 13
25 5 13 19 49 21 55 1 3 7 19 14 35 38 91 98 292 105 350 2 17 5 30 6 30 3 0
9 36 16 90 4 28 8 53 10 57 3 4 7 45 10 92 6 79 5 86 -12 87 -82 5 -194 5
-195 0 -3 -17 -8 -62 -14 -116 -3 -33 -7 -74 -9 -90 -2 -17 -6 -40 -10 -52 -7
-22 -11 -38 -26 -114 -27 -137 -167 -490 -218 -551 -8 -10 -12 -18 -8 -18 4 0
-1 -8 -11 -19 -24 -25 -42 -21 -148 29 -49 24 -96 43 -102 43 -7 0 -13 4 -13
8 0 4 -29 17 -65 30 -36 12 -65 26 -65 31 0 4 -8 8 -18 8 -10 0 -22 3 -26 7
-4 5 -11 8 -14 9 -8 1 -37 13 -97 39 -22 10 -43 17 -48 17 -4 -1 -31 9 -59 23
-29 14 -62 27 -73 29 -18 4 -57 17 -95 33 -13 5 -30 10 -65 17 -5 1 -16 5 -22
9 -7 5 -17 5 -23 2 -5 -3 -10 -2 -10 2 0 5 -8 9 -17 10 -93 6 -96 7 -125 63
-28 55 -30 83 -8 135 8 17 14 32 15 35 8 31 21 60 37 82 11 15 20 36 21 46 1
14 9 18 36 17 65 -2 91 19 91 75 0 35 11 63 24 61 3 -1 7 -1 9 0 1 0 10 2 20
4 10 2 29 11 43 19 19 13 24 25 24 60 0 48 10 60 58 71 46 10 62 30 62 78 0
51 7 62 44 71 80 20 74 106 -12 185 l-40 36 12 45 c19 75 90 162 312 384 270
270 333 328 351 324 34 -6 165 -304 198 -452 11 -51 37 -163 41 -181 3 -11 7
-31 10 -45 2 -14 6 -34 9 -46 5 -21 13 -111 19 -196 4 -61 15 -73 63 -71 21 1
38 2 38 3 0 1 20 3 45 4 25 0 50 4 56 8 9 6 12 143 4 143 -1 0 -3 16 -5 35 -3
33 -9 74 -22 160 -2 19 -11 62 -20 95 -8 33 -16 68 -17 77 -1 10 -5 20 -8 24
-4 3 -4 12 -1 20 3 8 0 21 -7 29 -6 8 -9 19 -5 25 3 5 2 10 -3 10 -5 0 -9 6
-10 13 -1 27 -12 60 -23 73 -6 8 -8 14 -4 14 4 0 2 7 -5 15 -7 8 -10 15 -7 15
5 0 -34 103 -53 138 -9 18 -23 53 -24 63 -2 13 -42 85 -51 91 -5 4 -6 8 -1 8
5 0 3 8 -6 18 -8 9 -20 28 -26 42 -23 45 -72 122 -85 131 -5 3 -8 9 -8 13 2
10 -28 55 -74 112 -14 18 -25 36 -25 40 -1 5 -19 27 -40 49 -22 22 -40 43 -40
47 0 4 -18 25 -39 47 -21 22 -37 42 -34 44 2 3 -5 8 -16 12 -12 3 -21 10 -21
15 0 8 -118 130 -126 130 -4 0 -52 41 -80 68 -7 6 -17 12 -22 12 -6 0 -12 4
-14 9 -6 19 -230 175 -251 176 -4 0 -12 7 -17 15 -5 8 -10 11 -10 5 0 -6 -3
-5 -8 1 -14 22 -73 46 -86 35 -7 -6 -16 -8 -19 -4 -4 3 -7 -5 -7 -19 0 -14 -8
-36 -19 -49 -10 -13 -22 -35 -26 -49 -4 -14 -12 -28 -17 -31 -14 -9 14 -50 29
-45 7 3 15 1 18 -4 3 -5 31 -23 63 -41 31 -18 59 -36 62 -39 3 -4 19 -15 37
-24 18 -9 36 -22 40 -29 4 -7 22 -22 39 -32 36 -23 108 -83 198 -167 33 -32
64 -58 69 -58 4 0 7 -6 7 -14 0 -8 7 -16 15 -20 26 -9 -1 -50 -120 -180 -73
-80 -155 -179 -155 -187 0 -6 -4 -7 -10 -4 -5 3 -10 3 -10 -2 0 -4 -13 -21
-28 -38 -15 -16 -61 -70 -102 -120 -41 -49 -77 -92 -80 -95 -23 -23 -90 -120
-90 -130 0 -7 -3 -10 -7 -7 -7 7 -19 -12 -52 -80 -15 -32 -26 -43 -43 -44 -13
0 -32 -2 -43 -4 -11 -2 -30 -6 -42 -8 -12 -2 -25 -6 -28 -9 -14 -14 -58 11
-117 64 -51 46 -64 64 -66 90 -2 33 -32 68 -57 68 -17 0 -28 32 -30 85 -1 49
-11 65 -49 85 -32 16 -47 53 -36 85 11 30 -8 60 -46 75 -38 15 -47 30 -49 83
-2 41 -20 66 -51 72 -10 2 -21 4 -24 5 -15 6 -66 -4 -72 -13 -4 -6 -10 -9 -13
-5 -4 4 -26 -3 -48 -16 -44 -23 -87 -24 -87 -1 0 7 -15 18 -32 25 -18 6 -42
18 -54 28 -24 20 -113 142 -140 192 -10 19 -24 42 -30 50 -7 8 -23 35 -37 60
-13 25 -32 61 -43 80 -10 19 -23 38 -29 42 -5 4 -6 8 -2 8 5 0 0 12 -11 28
-10 15 -32 54 -48 87 -16 33 -31 62 -34 65 -3 3 -14 23 -25 45 -11 22 -29 56
-41 75 -11 19 -19 41 -17 48 3 6 0 12 -6 12 -6 0 -11 8 -11 19 0 18 21 30 65
36 11 1 34 5 50 9 30 5 89 12 195 22 64 6 284 6 350 0 172 -16 239 -24 290
-36 25 -5 56 -12 70 -14 23 -5 136 -34 200 -52 14 -4 31 -11 38 -17 6 -5 12
-6 12 -3 0 4 9 2 21 -4 44 -24 58 -21 79 21 11 21 18 39 16 39 -3 0 4 21 14
46 11 25 18 50 14 55 -3 5 0 9 6 9 6 0 8 5 5 10 -4 6 -10 8 -15 5 -5 -3 -11
-1 -14 4 -3 4 -20 12 -38 16 -37 9 -47 12 -50 15 -2 1 -10 3 -18 5 -8 1 -35 8
-60 16 -57 16 -61 17 -85 23 -87 20 -124 28 -150 32 -16 2 -46 6 -65 9 -66 11
-163 24 -169 23 -3 0 -8 1 -11 2 -3 1 -63 4 -135 6 -71 2 -138 6 -147 8 -9 2
-18 2 -20 1z m-101 -1917 c68 -46 129 -66 197 -63 32 2 62 8 66 14 4 7 11 11
16 9 5 -1 23 5 40 15 38 20 84 29 84 16 0 -5 6 -9 14 -9 8 0 18 -9 21 -20 3
-11 10 -20 14 -20 5 0 26 -16 47 -36 22 -20 55 -48 74 -62 51 -39 57 -46 54
-62 -1 -8 -6 -35 -11 -60 -11 -57 -8 -123 8 -164 11 -27 61 -98 96 -134 15
-16 16 -26 4 -50 -44 -80 -111 -228 -111 -242 0 -10 -7 -21 -16 -24 -8 -3 -13
-10 -9 -15 3 -5 -16 -13 -42 -16 -27 -3 -61 -9 -78 -11 -16 -3 -36 -6 -42 -6
-7 -1 -13 -5 -13 -10 0 -4 -8 -8 -18 -8 -23 0 -103 -87 -129 -138 -17 -36 -21
-38 -58 -35 -22 2 -66 5 -97 6 -32 1 -58 4 -58 7 0 3 -8 6 -17 7 -50 5 -84 11
-89 16 -3 2 -7 17 -10 33 -14 80 -121 185 -201 200 -13 2 -35 6 -50 9 -78 13
-78 14 -79 53 -2 55 -11 119 -18 131 -4 6 -2 11 4 11 6 0 8 5 4 11 -8 13 -13
59 -18 159 -3 63 -2 64 28 82 17 10 39 21 48 24 10 4 20 14 23 23 3 9 18 31
35 49 17 19 28 38 25 43 -4 5 -2 9 3 9 11 0 11 3 14 112 2 47 5 88 8 91 6 5
178 84 188 86 2 1 24 -13 49 -31z"/>
<path d="M2255 2924 c-5 -47 -3 -69 5 -74 6 -4 11 -10 11 -14 -3 -19 0 -26 13
-26 8 0 16 -5 18 -10 3 -9 26 -15 71 -19 7 -1 5 -17 -8 -71 -4 -14 -7 -31 -7
-37 -1 -7 -5 -13 -10 -13 -4 0 -8 -6 -8 -12 0 -7 -9 -24 -20 -38 -22 -29 -26
-52 -7 -48 6 1 29 -1 50 -6 41 -8 41 -10 22 -93 -3 -13 -7 -32 -10 -44 -2 -11
-7 -29 -10 -39 -9 -29 -20 -103 -31 -210 -2 -21 -12 -41 -25 -51 -26 -20 -11
-34 27 -25 17 5 24 13 24 29 0 13 5 28 12 35 6 6 13 17 14 24 21 127 88 294
111 279 15 -9 44 -69 49 -100 19 -114 39 -195 51 -206 7 -8 13 -20 13 -27 0
-23 22 -38 54 -38 l31 0 -22 18 c-19 16 -38 88 -48 192 -9 83 -17 135 -23 144
-4 6 -7 80 -7 163 l0 153 45 5 c92 13 116 34 145 131 15 50 13 64 -11 64 -14
0 -16 -5 -16 -52 -1 -16 -4 -28 -7 -28 -4 0 -14 -13 -24 -29 -13 -23 -25 -30
-57 -33 -22 -2 -50 2 -63 9 -12 7 -32 12 -44 13 -20 0 -23 5 -21 41 2 48 -16
65 -47 45 -13 -8 -21 -27 -23 -50 -3 -35 -5 -36 -45 -38 -62 -3 -110 1 -118 9
-7 7 -11 25 -24 93 -1 8 2 18 8 21 12 9 0 29 -17 29 -9 0 -16 -22 -21 -66z"/>
<path d="M2780 4543 c-14 -5 -104 -95 -140 -139 -80 -99 -84 -105 -74 -122 6
-9 21 -37 35 -62 13 -24 32 -54 43 -67 20 -23 28 -22 103 13 37 18 67 15 69
-6 1 -8 3 -17 4 -20 1 -3 3 -13 5 -23 2 -10 7 -26 11 -35 4 -9 8 -30 10 -46 1
-16 6 -32 11 -35 4 -3 19 -28 33 -54 15 -29 34 -50 48 -54 12 -3 22 -9 22 -13
0 -14 56 -31 108 -32 41 -1 53 -5 58 -20 3 -11 35 -34 72 -52 78 -37 111 -56
133 -74 21 -16 59 -24 59 -11 0 5 5 9 12 9 14 0 138 126 138 140 0 5 4 10 9
10 8 0 35 61 29 65 -3 3 -129 70 -212 114 -33 17 -65 36 -71 41 -7 5 -15 7
-18 3 -4 -3 -7 -1 -7 5 0 7 -7 12 -15 12 -8 0 -24 18 -35 40 -32 64 -65 87
-149 105 -42 9 -81 19 -88 21 -7 1 -24 28 -38 58 -15 31 -31 56 -37 56 -6 0
-9 3 -5 6 3 4 -6 25 -22 48 -15 22 -38 60 -51 84 -13 23 -26 42 -29 41 -3 0
-13 -3 -21 -6z m470 -595 c-11 -12 -20 -27 -20 -32 0 -17 -47 -72 -55 -64 -10
9 65 118 82 118 10 0 8 -6 -7 -22z"/>
<path d="M1300 4138 c0 -5 -4 -6 -10 -3 -5 3 -10 1 -10 -4 0 -6 -5 -11 -11
-11 -7 0 -33 -22 -59 -50 -26 -27 -53 -50 -59 -50 -7 0 -22 -5 -34 -12 -12 -7
-27 -13 -33 -14 -59 -10 -91 -58 -60 -90 25 -25 19 -48 -24 -90 -48 -47 -49
-76 -3 -111 38 -29 48 -55 33 -83 -6 -11 -8 -29 -5 -40 7 -23 96 -110 112
-110 6 0 13 -4 15 -8 5 -14 63 -50 89 -57 21 -5 29 1 57 40 17 25 32 49 32 54
0 10 26 23 50 27 8 1 36 4 61 7 53 5 78 17 137 64 50 41 88 98 106 157 21 70
6 134 -48 214 -36 51 -103 122 -116 122 -5 0 -10 3 -12 8 -1 4 -24 17 -49 30
-34 18 -59 23 -102 21 -31 -1 -57 -6 -57 -11z"/>
<path d="M4055 2512 c-11 -2 -29 -10 -39 -18 -25 -17 -56 -98 -45 -116 16 -24
10 -35 -56 -103 -36 -36 -68 -77 -71 -91 -3 -13 -11 -24 -17 -24 -6 0 -8 -3
-4 -6 3 -3 2 -16 -3 -29 -10 -26 12 -65 36 -65 24 0 77 -31 104 -60 14 -14 41
-37 62 -50 20 -13 43 -36 52 -51 15 -25 20 -27 63 -22 40 4 54 11 83 44 20 21
40 39 46 39 15 0 54 35 54 48 0 20 -59 59 -100 66 -22 3 -64 18 -92 33 -28 15
-67 29 -87 32 -32 6 -36 10 -39 39 -2 18 1 32 7 32 6 0 10 3 9 8 0 4 2 16 6
27 4 11 12 32 18 47 12 34 52 44 85 23 23 -16 98 -16 123 0 20 12 39 63 34 91
-7 42 -34 63 -90 73 -27 5 -65 15 -84 23 -19 8 -44 13 -55 10z"/>
<path d="M1070 2350 c-8 -5 -18 -6 -22 -4 -4 3 -8 0 -8 -5 0 -6 -3 -10 -7 -9
-9 1 -25 -5 -90 -33 -23 -11 -49 -19 -57 -19 -9 0 -16 -4 -16 -10 0 -5 -5 -10
-10 -10 -6 0 -27 -7 -48 -17 -20 -9 -40 -17 -44 -17 -3 -1 -10 -4 -14 -8 -4
-5 -15 -8 -25 -8 -19 0 -150 -95 -206 -149 -18 -17 -33 -28 -33 -24 0 4 -11
-4 -25 -19 -29 -31 -32 -60 -9 -79 8 -7 24 -29 35 -48 28 -52 68 -105 85 -114
8 -5 20 -18 25 -30 18 -41 64 -110 96 -147 63 -72 41 -66 233 -69 96 -1 195
-3 219 -5 47 -2 70 18 75 66 1 13 6 30 10 37 5 8 3 17 -5 22 -17 11 -30 11
-27 2 2 -5 -1 -9 -7 -11 -5 -1 -11 6 -13 17 -2 15 4 22 21 26 17 5 26 15 29
34 3 18 0 28 -9 28 -7 0 -13 -6 -13 -13 0 -6 -7 -15 -16 -18 -12 -5 -15 1 -12
27 2 19 8 31 16 29 8 -1 12 13 12 49 0 31 4 48 10 44 9 -5 15 14 12 37 -1 3 5
9 13 12 11 4 13 -3 11 -27 -2 -18 -6 -39 -9 -47 -3 -8 -8 -30 -11 -48 -7 -42
10 -33 19 11 4 17 13 39 21 47 11 14 10 23 -8 60 -12 24 -30 52 -40 62 -10 10
-16 23 -13 27 2 5 -2 15 -11 22 -35 29 -62 126 -66 244 0 11 -4 36 -9 55 -9
37 -31 47 -59 30z m67 -322 c-3 -29 -6 -55 -6 -57 -1 -2 -7 1 -14 8 -13 10
-14 71 -2 91 16 26 26 6 22 -42z m81 -103 c-1 -21 -5 -32 -10 -27 -8 8 -1 62
8 62 2 0 3 -16 2 -35z"/>
<path d="M2780 1168 c0 -4 -10 -8 -23 -8 -27 0 -62 -23 -98 -63 -20 -22 -31
-28 -47 -23 -12 4 -22 13 -22 20 0 7 -19 26 -42 41 -75 50 -190 39 -257 -24
-54 -50 -71 -89 -71 -162 0 -64 17 -139 32 -139 4 0 7 -3 6 -7 -6 -16 62 -120
109 -168 67 -69 183 -170 213 -186 37 -20 53 -20 82 -1 94 62 298 266 298 298
0 7 4 14 9 16 5 2 11 10 13 18 2 8 9 21 16 28 7 8 10 17 7 22 -3 5 -1 11 5 15
10 6 27 102 21 120 -2 6 -4 17 -5 25 -7 62 -51 131 -93 144 -13 4 -23 11 -23
15 0 5 -19 12 -42 16 -66 12 -88 13 -88 3z"/>
</g>
</svg>
