<?xml version="1.0" standalone="no"?>
<!DOCTYPE svg PUBLIC "-//W3C//DTD SVG 20010904//EN"
 "http://www.w3.org/TR/2001/REC-SVG-20010904/DTD/svg10.dtd">
<svg version="1.0" xmlns="http://www.w3.org/2000/svg"
 width="500.000000pt" height="500.000000pt" viewBox="0 0 500.000000 500.000000"
 preserveAspectRatio="xMidYMid meet">
<metadata>
Created by potrace 1.14, written by Peter Selinger 2001-2017
</metadata>
<g transform="translate(0.000000,500.000000) scale(0.100000,-0.100000)"
fill="#000000" stroke="none">
<path d="M2246 4942 c-3 -2 -25 -6 -48 -8 -24 -1 -56 -5 -73 -8 -16 -3 -43 -8
-60 -11 -104 -19 -170 -32 -170 -35 0 -1 -7 -3 -15 -5 -31 -8 -156 -45 -170
-51 -8 -4 -19 -8 -25 -9 -5 -2 -34 -12 -62 -24 -29 -11 -53 -17 -53 -13 0 4
-4 3 -8 -3 -10 -15 -49 -35 -67 -35 -8 0 -15 -4 -15 -10 0 -5 -9 -10 -20 -10
-11 0 -20 -5 -20 -12 0 -6 -3 -9 -6 -5 -6 6 -133 -58 -144 -73 -3 -3 -32 -21
-65 -39 -33 -19 -62 -37 -65 -42 -3 -4 -12 -9 -20 -11 -8 -2 -25 -13 -37 -25
-12 -13 -25 -23 -28 -23 -4 0 -34 -21 -68 -47 -34 -26 -66 -51 -72 -55 -19
-14 -120 -100 -167 -143 -27 -24 -48 -49 -48 -57 0 -19 124 -138 144 -138 9 0
16 8 16 17 0 9 2 14 5 11 3 -3 25 14 50 38 24 24 47 44 50 44 4 0 12 6 19 13
8 7 33 29 56 48 23 18 48 40 55 47 8 6 18 12 24 12 6 0 11 4 11 9 0 5 15 18
33 30 17 11 41 26 52 33 11 7 23 18 27 23 5 7 8 7 8 0 0 -6 3 -5 8 1 9 14 79
58 159 101 l62 33 24 -22 c23 -23 42 -56 39 -70 -1 -5 2 -8 7 -8 5 0 14 -13
21 -30 7 -16 16 -30 21 -30 5 0 9 -9 9 -19 0 -11 4 -21 8 -23 4 -1 36 -50 72
-108 35 -58 66 -107 70 -110 4 -3 15 -21 26 -40 10 -19 21 -37 24 -40 3 -3 27
-39 54 -80 27 -41 62 -92 78 -112 16 -21 27 -38 23 -38 -3 0 4 -11 17 -24 13
-14 41 -46 63 -72 22 -26 55 -61 73 -77 25 -24 32 -38 32 -69 0 -51 -12 -71
-55 -97 -34 -20 -48 -20 -93 2 -17 8 -30 7 -57 -6 -19 -9 -35 -21 -35 -27 0
-13 -55 -8 -92 8 -31 13 -53 7 -82 -20 -11 -10 -25 -19 -30 -19 -24 -3 -52 4
-69 16 -27 19 -64 9 -98 -25 -26 -26 -32 -28 -62 -19 -52 16 -61 17 -82 6 -47
-23 -53 -40 -53 -137 l0 -94 -36 -18 c-20 -10 -36 -22 -36 -27 0 -24 -256
-103 -375 -116 -16 -2 -57 -6 -90 -10 -33 -4 -80 -8 -105 -10 -25 -2 -45 -4
-45 -5 0 -1 -16 -3 -35 -5 -313 -26 -299 -27 -306 2 -6 24 7 101 29 173 6 19
12 37 12 40 0 3 9 30 20 60 18 54 22 65 28 94 2 8 8 20 14 27 6 8 12 17 13 21
9 37 16 57 36 97 13 25 24 52 24 59 0 6 4 12 8 12 5 0 19 23 31 50 12 28 28
50 33 50 6 0 8 3 5 6 -4 4 3 20 14 35 11 16 17 29 12 29 -4 0 -3 4 3 8 16 11
112 149 113 164 1 4 -33 33 -75 64 -59 44 -80 55 -92 48 -34 -22 -222 -320
-252 -400 -6 -16 -21 -49 -33 -74 -12 -25 -22 -47 -23 -50 0 -3 -6 -18 -12
-33 -7 -16 -12 -34 -12 -41 0 -6 -4 -16 -10 -22 -5 -5 -11 -18 -13 -29 -4 -20
-11 -40 -27 -80 -4 -11 -17 -58 -28 -105 -11 -47 -24 -98 -28 -115 -11 -47
-27 -151 -41 -265 -15 -127 -8 -480 12 -575 2 -11 6 -38 9 -60 3 -22 8 -51 11
-65 3 -14 7 -34 9 -45 2 -11 9 -40 16 -65 7 -25 14 -54 16 -65 11 -58 19 -84
46 -149 16 -39 29 -73 30 -76 0 -3 4 -15 9 -28 5 -13 9 -26 9 -28 0 -3 32 -70
71 -149 72 -149 81 -158 121 -129 7 5 27 16 43 24 17 8 36 21 43 28 8 6 22 17
33 23 19 10 19 11 -3 52 -12 23 -29 50 -37 60 -8 9 -11 17 -6 17 4 0 2 7 -5
15 -20 25 -79 163 -105 247 -13 42 -28 85 -33 95 -6 10 -10 20 -10 23 1 3 -9
48 -20 100 -39 176 -62 382 -45 393 8 5 66 16 113 22 14 2 26 4 28 5 3 4 12 5
77 15 33 5 62 9 65 10 3 1 32 5 65 9 33 4 74 9 90 11 31 5 38 6 115 23 25 6
63 14 85 17 22 4 51 9 65 12 14 2 31 5 38 5 6 1 12 5 12 9 0 4 6 6 13 6 23 -3
107 14 107 21 0 4 21 14 47 21 27 8 75 27 108 42 63 29 82 30 141 3 41 -18 56
-37 59 -76 2 -18 6 -67 10 -108 17 -185 16 -197 -9 -227 -33 -40 -36 -55 -18
-94 19 -42 23 -69 9 -69 -6 0 -8 -3 -4 -6 3 -3 -3 -15 -14 -27 -23 -25 -24
-54 -3 -95 17 -35 12 -63 -17 -101 -23 -29 -24 -43 -2 -84 22 -42 22 -46 1
-88 -29 -60 -14 -97 52 -132 43 -23 45 -25 44 -68 -2 -46 -9 -116 -18 -159 -3
-14 -7 -42 -10 -62 -5 -35 -20 -101 -31 -138 -2 -8 -20 -73 -39 -145 -19 -71
-39 -142 -45 -157 -6 -16 -8 -28 -5 -28 2 0 0 -8 -5 -18 -5 -9 -11 -30 -14
-47 -8 -47 -24 -82 -41 -88 -8 -3 -31 5 -51 19 -20 13 -40 24 -45 24 -4 0 -10
4 -12 8 -1 4 -25 23 -53 42 -27 19 -55 40 -61 45 -6 6 -31 26 -55 45 -43 34
-253 240 -245 240 2 0 -10 15 -28 33 -49 51 -81 90 -101 125 -11 18 -25 32
-32 32 -17 0 -93 -50 -93 -61 0 -5 -7 -9 -15 -9 -15 0 -55 -30 -55 -41 0 -9
92 -133 102 -137 5 -2 8 -8 8 -12 0 -16 182 -206 262 -273 90 -76 165 -135
213 -167 28 -19 52 -36 55 -39 3 -3 23 -15 44 -26 22 -11 44 -24 50 -30 6 -5
31 -20 56 -33 25 -12 52 -27 60 -32 18 -11 152 -71 200 -90 19 -7 40 -17 46
-22 7 -5 20 -11 30 -13 11 -3 71 -22 134 -44 64 -22 127 -41 140 -43 14 -2 31
-7 38 -12 7 -4 16 -6 19 -3 3 3 17 1 32 -5 14 -5 40 -12 56 -14 17 -2 41 -6
55 -10 14 -3 45 -7 70 -9 25 -1 83 -6 130 -10 202 -19 478 -6 637 30 18 4 21
10 18 49 -3 24 -7 57 -10 72 -3 16 -7 38 -9 50 -6 41 -16 47 -56 31 -8 -3 -22
-5 -30 -5 -8 0 -26 -3 -40 -6 -85 -17 -145 -21 -315 -20 -164 0 -281 6 -343
19 -142 28 -180 36 -197 38 -11 2 -44 11 -72 21 -61 20 -64 30 -38 126 8 30
17 66 20 80 2 14 7 39 9 55 3 17 8 41 11 55 9 43 17 84 20 105 5 41 17 102 31
168 8 37 12 72 9 78 -4 5 -3 9 2 9 4 0 8 10 9 23 0 12 3 38 7 57 11 62 20 134
21 163 1 15 3 27 6 27 3 0 5 16 4 35 -2 32 7 42 46 50 44 9 62 21 124 84 l44
43 63 -7 c35 -3 74 -7 86 -9 30 -2 41 -14 47 -51 8 -45 40 -66 92 -60 55 6 69
0 92 -39 20 -33 57 -52 68 -35 3 5 20 9 39 9 25 0 39 -7 52 -26 36 -51 53 -65
75 -59 46 15 84 7 115 -24 23 -22 37 -29 57 -25 49 9 76 24 86 48 5 13 14 27
19 31 6 3 11 13 11 21 0 8 11 26 24 41 22 24 28 25 102 20 139 -8 161 -16 479
-174 229 -114 246 -123 267 -141 8 -6 18 -9 21 -5 4 3 7 1 7 -5 0 -7 8 -12 18
-12 9 0 23 -9 29 -20 11 -16 8 -24 -15 -52 -15 -18 -42 -46 -61 -63 -19 -16
-49 -43 -66 -60 -46 -43 -74 -66 -130 -105 -27 -19 -52 -38 -55 -41 -8 -9
-120 -79 -127 -79 -3 0 -14 -6 -22 -14 -9 -7 -50 -31 -91 -52 -41 -21 -78 -43
-81 -47 -3 -5 -10 -9 -15 -9 -11 0 -29 -7 -131 -52 -46 -19 -83 -33 -83 -29 0
3 -7 0 -15 -7 -8 -7 -15 -10 -15 -6 0 4 -13 0 -29 -9 -26 -13 -29 -18 -21 -44
4 -15 12 -37 18 -47 5 -10 10 -22 11 -26 1 -5 1 -9 2 -10 0 -2 3 -14 5 -28 8
-46 24 -52 84 -33 30 9 57 17 60 18 14 4 71 29 117 51 28 13 54 24 56 24 2 0
36 18 76 39 39 22 71 36 71 33 0 -4 4 -2 8 3 9 13 111 75 123 75 5 0 9 5 9 10
0 6 7 10 15 10 8 0 15 4 15 9 0 5 14 14 30 21 17 7 30 16 30 21 0 4 9 11 20
14 11 4 32 18 45 31 14 14 25 22 25 18 0 -4 8 1 18 12 10 10 31 28 47 39 76
54 321 293 385 375 19 25 38 47 42 48 4 2 8 10 8 17 0 8 6 18 13 22 7 4 23 24
35 44 12 19 30 44 42 54 11 10 20 26 20 37 0 10 5 18 10 18 6 0 10 7 10 15 0
8 4 15 8 15 5 0 17 19 28 41 10 23 23 47 29 53 5 6 19 29 30 51 10 22 25 47
31 55 7 8 12 17 12 20 0 7 23 63 33 80 5 8 11 20 13 25 5 13 19 49 21 55 1 3
7 19 14 35 34 81 93 281 105 355 3 14 5 25 6 25 2 0 9 37 15 85 4 25 8 52 10
60 3 8 7 42 10 75 3 33 7 69 10 81 5 24 11 22 -112 28 -96 5 -105 2 -109 -39
-4 -37 -15 -140 -18 -170 -2 -17 -6 -40 -10 -52 -7 -22 -11 -38 -26 -114 -28
-141 -154 -455 -228 -571 -30 -46 -34 -45 -157 13 -49 23 -96 42 -102 42 -7 0
-13 4 -13 8 0 4 -29 17 -65 30 -36 12 -65 26 -65 31 0 4 -8 8 -18 8 -10 0 -22
3 -26 7 -4 5 -11 8 -14 9 -8 1 -37 13 -97 39 -22 10 -43 17 -48 17 -4 -1 -31
9 -59 23 -29 14 -70 30 -92 36 -21 6 -50 15 -65 21 -14 6 -35 13 -46 15 -35 8
-50 11 -55 14 -3 1 -9 3 -15 4 -5 2 -12 4 -15 5 -12 4 -47 10 -80 13 -30 3
-37 10 -62 57 -28 55 -30 83 -8 135 7 17 14 35 16 42 2 11 15 38 53 108 12 24
23 30 46 30 33 -1 66 12 77 29 4 6 8 27 8 46 0 35 11 63 24 61 3 -1 7 -1 9 0
1 0 10 2 20 4 10 2 29 11 43 19 19 13 24 25 24 60 0 48 10 60 58 71 46 10 62
30 62 78 0 51 7 62 44 71 17 4 36 15 43 24 16 22 17 74 1 90 -7 7 -8 12 -4 12
5 0 -14 22 -42 48 -29 27 -50 51 -47 53 2 3 7 20 10 39 5 29 28 72 67 125 41
55 266 285 472 483 47 46 86 87 86 91 0 5 12 8 28 7 24 -1 32 -11 67 -82 50
-100 68 -143 72 -169 2 -11 8 -21 13 -23 6 -2 10 -16 10 -31 0 -15 4 -31 8
-36 12 -13 29 -73 58 -200 8 -38 18 -79 20 -90 3 -11 7 -31 10 -45 2 -14 6
-34 9 -46 5 -21 13 -111 19 -198 4 -50 25 -80 50 -70 7 3 41 6 77 7 35 1 69 6
75 9 7 5 10 33 8 75 -1 38 -3 68 -4 68 -1 0 -3 16 -5 35 -2 19 -7 55 -10 80
-4 25 -9 61 -11 80 -3 19 -12 62 -21 95 -9 33 -17 69 -19 80 -1 11 -3 20 -4
20 -1 0 -3 9 -4 20 -2 18 -30 109 -43 145 -4 8 -7 17 -8 20 -6 27 -32 95 -50
135 -20 44 -34 79 -40 95 -8 24 -21 49 -37 73 -11 15 -16 27 -12 27 4 0 1 8
-8 18 -8 9 -20 28 -26 42 -7 14 -21 39 -32 55 -11 17 -25 40 -31 53 -7 12 -16
22 -21 22 -5 0 -7 4 -4 9 3 4 -3 16 -14 26 -11 10 -17 22 -14 26 3 5 1 9 -4 9
-6 0 -19 15 -31 33 -38 59 -46 70 -83 111 -21 23 -38 44 -38 48 0 5 -16 24
-77 90 -7 7 -17 18 -23 23 -6 6 -26 27 -45 49 -19 21 -35 36 -35 33 0 -2 -19
14 -43 37 -66 63 -106 96 -117 96 -5 0 -10 4 -10 8 0 5 -25 26 -57 48 -31 21
-61 43 -67 49 -19 18 -90 63 -118 76 -16 7 -28 16 -28 21 0 5 -4 7 -9 4 -5 -3
-12 1 -15 9 -3 8 -9 14 -13 13 -4 -1 -18 4 -31 11 -17 9 -27 9 -36 2 -7 -6
-16 -8 -19 -4 -4 3 -7 -4 -7 -17 0 -12 -13 -44 -28 -69 -16 -25 -31 -55 -34
-66 -5 -22 16 -50 31 -40 5 3 12 1 16 -4 3 -5 31 -24 63 -42 31 -18 59 -36 62
-39 3 -4 19 -15 37 -24 18 -9 36 -22 40 -29 4 -7 22 -22 39 -32 36 -23 108
-83 198 -167 33 -32 64 -58 69 -58 4 0 7 -6 7 -14 0 -8 7 -16 15 -20 10 -3 12
-12 7 -24 -6 -17 -70 -96 -122 -152 -67 -71 -160 -183 -160 -191 0 -6 -4 -7
-10 -4 -5 3 -10 3 -10 -2 0 -4 -19 -28 -41 -53 -73 -81 -240 -290 -255 -318
-7 -15 -14 -22 -14 -17 0 11 -19 -21 -49 -82 -15 -32 -26 -43 -43 -44 -13 0
-33 -2 -45 -5 -13 -2 -32 -5 -43 -7 -11 -2 -22 -6 -25 -9 -15 -15 -60 10 -119
67 -54 51 -66 68 -66 94 0 25 -7 35 -32 51 -18 11 -37 21 -41 23 -4 1 -9 27
-11 57 -3 64 -11 80 -50 100 -32 16 -47 53 -36 85 11 30 -8 60 -46 75 -38 15
-47 30 -49 83 -2 41 -20 66 -51 72 -10 2 -21 4 -24 5 -15 6 -66 -4 -72 -13 -4
-6 -10 -9 -13 -5 -4 4 -26 -3 -48 -16 -44 -23 -87 -24 -87 -1 0 7 -15 18 -33
24 -29 10 -65 38 -92 73 -57 72 -148 219 -214 343 -9 16 -20 33 -26 37 -5 4
-6 8 -2 8 4 0 -4 17 -18 37 -14 21 -25 41 -25 45 0 4 -13 29 -29 57 -16 27
-27 52 -24 55 4 3 2 6 -3 6 -6 0 -16 16 -24 35 -8 19 -18 35 -24 35 -5 0 -6 3
-3 6 4 4 -2 19 -12 33 -10 14 -16 32 -14 39 3 6 0 12 -6 12 -6 0 -11 8 -11 19
0 18 21 30 65 36 11 1 34 5 50 9 29 5 83 11 195 22 172 16 506 -4 663 -41 31
-7 60 -14 62 -14 3 -1 6 -1 8 -2 3 -1 27 -7 47 -12 8 -2 32 -7 53 -12 21 -4
72 -20 114 -36 49 -18 82 -25 91 -20 17 9 63 131 66 170 1 21 -7 28 -49 43
-27 10 -51 18 -52 18 -2 0 -4 0 -5 1 -2 0 -10 2 -18 4 -8 1 -35 9 -60 16 -25
7 -49 14 -55 15 -5 1 -13 3 -17 4 -5 1 -12 4 -18 5 -5 1 -11 3 -12 5 -5 3 -67
15 -130 25 -18 2 -49 7 -68 10 -105 17 -164 23 -171 19 -4 -2 -10 0 -13 4 -6
10 -491 13 -500 4z m101 -1904 c70 -48 130 -67 197 -63 35 2 62 8 67 16 5 8 9
11 9 6 0 -4 17 1 39 12 45 24 91 34 91 20 0 -5 6 -9 14 -9 8 0 18 -9 21 -20 3
-11 10 -20 15 -20 4 0 21 -12 38 -27 56 -52 104 -93 109 -93 11 0 30 -27 27
-40 -1 -8 -6 -35 -11 -60 -18 -93 1 -181 51 -237 74 -84 73 -81 57 -111 -38
-70 -111 -227 -111 -238 0 -24 -33 -54 -65 -59 -43 -6 -108 -16 -122 -17 -7
-1 -13 -5 -13 -10 0 -4 -8 -8 -17 -8 -23 0 -83 -62 -122 -126 -30 -50 -33 -52
-69 -48 -20 3 -57 7 -82 9 -25 3 -63 8 -85 11 -22 3 -50 7 -63 9 -29 3 -32 6
-38 41 -12 70 -110 176 -174 188 -3 1 -9 4 -15 8 -5 3 -36 9 -68 13 -61 8 -75
20 -71 63 0 12 -1 24 -5 26 -3 2 -6 29 -6 60 0 31 -3 56 -6 56 -3 0 -6 15 -6
33 0 17 -3 68 -5 111 l-5 80 31 18 c17 10 39 21 48 24 10 4 20 14 23 23 3 9
18 31 35 49 17 19 28 38 25 43 -4 5 -2 9 3 9 11 0 11 3 14 112 2 47 5 88 8 91
6 5 178 84 188 86 2 1 24 -13 49 -31z"/>
<path d="M2258 2955 c-1 -19 -2 -50 -3 -67 -2 -39 13 -78 31 -78 7 0 14 -5 16
-12 2 -6 20 -12 38 -12 38 -1 41 -10 26 -75 -8 -34 -39 -97 -57 -116 -13 -13
-11 -36 4 -33 6 1 29 -1 50 -6 41 -8 41 -10 22 -96 -3 -14 -8 -34 -10 -45 -3
-11 -8 -31 -11 -45 -7 -30 -23 -130 -28 -180 -3 -19 -5 -38 -5 -42 -1 -4 -10
-16 -22 -27 -24 -23 -11 -36 27 -27 16 4 24 12 21 20 -3 8 2 24 11 37 9 13 17
28 18 34 12 64 16 85 24 115 15 54 76 168 87 161 15 -9 44 -69 49 -100 19
-110 39 -194 49 -204 6 -7 14 -24 18 -38 5 -21 13 -25 44 -27 38 -2 38 -2 17
15 -22 18 -36 76 -50 203 -3 30 -11 84 -18 120 -12 60 -14 315 -3 326 2 3 22
7 43 10 86 12 110 35 139 130 15 50 13 64 -11 64 -15 0 -15 -2 -17 -47 -1 -15
-7 -34 -14 -43 -7 -8 -18 -23 -25 -32 -16 -20 -84 -26 -115 -10 -12 7 -31 12
-42 12 -18 0 -21 6 -19 41 2 48 -16 65 -47 45 -13 -8 -21 -27 -23 -50 -3 -35
-5 -36 -45 -38 -62 -3 -110 1 -119 10 -4 4 -10 25 -14 47 -3 22 -8 42 -10 44
-2 2 1 10 7 17 13 16 4 34 -17 34 -9 0 -15 -12 -16 -35z"/>
<path d="M2780 4543 c-26 -10 -172 -169 -209 -227 -12 -20 -10 -27 18 -73 17
-27 31 -53 31 -57 0 -4 10 -17 23 -30 24 -24 32 -24 103 10 38 18 68 15 70 -6
1 -8 3 -17 4 -20 1 -3 3 -13 5 -23 2 -10 7 -26 11 -35 4 -9 8 -30 10 -46 1
-16 6 -32 11 -35 4 -3 19 -28 33 -54 15 -29 34 -50 48 -54 12 -3 22 -9 22 -13
0 -14 56 -31 108 -32 41 -1 53 -5 58 -20 5 -17 91 -69 122 -74 8 -1 22 -10 31
-18 10 -9 21 -16 25 -16 4 0 21 -9 37 -20 24 -18 32 -19 51 -9 21 11 110 99
151 148 17 22 40 72 35 76 -2 1 -37 19 -78 41 -41 21 -77 42 -80 45 -3 4 -31
18 -62 33 -32 15 -60 32 -63 37 -4 5 -11 7 -16 4 -5 -4 -9 -1 -9 4 0 6 -7 11
-15 11 -8 0 -23 17 -34 38 -36 68 -63 88 -148 107 -43 9 -83 19 -90 21 -7 1
-24 28 -38 58 -15 31 -31 56 -37 56 -6 0 -9 3 -5 6 3 4 -6 25 -22 48 -15 22
-38 60 -51 84 -13 23 -26 42 -29 41 -3 0 -13 -3 -21 -6z m461 -610 c-28 -54
-46 -76 -64 -79 -13 -2 -12 4 6 29 12 18 25 34 28 37 3 3 11 15 18 28 6 12 16
22 22 22 5 0 1 -17 -10 -37z"/>
<path d="M1290 4133 c-19 -9 -53 -35 -75 -58 -37 -39 -93 -71 -155 -90 -51
-15 -66 -51 -35 -81 24 -25 18 -48 -25 -90 -48 -47 -49 -76 -3 -111 38 -29 48
-55 33 -83 -6 -11 -8 -29 -5 -40 7 -23 96 -110 112 -110 6 0 13 -4 15 -8 6
-14 62 -49 89 -55 24 -6 31 -1 65 53 22 33 46 61 54 61 16 2 32 5 40 9 3 1 23
3 45 4 47 3 74 16 134 64 41 33 80 86 80 106 -1 5 4 12 11 16 6 4 12 19 14 33
1 15 5 29 8 32 9 9 -2 75 -18 114 -22 53 -74 124 -110 152 -18 13 -30 27 -27
32 2 4 0 7 -6 7 -6 0 -32 14 -58 30 -55 35 -126 40 -183 13z"/>
<path d="M4055 2512 c-54 -12 -96 -87 -81 -146 5 -20 -4 -34 -51 -83 -65 -65
-115 -156 -103 -187 7 -22 16 -27 69 -47 19 -7 49 -27 65 -44 17 -17 47 -42
68 -55 20 -13 43 -36 52 -51 15 -25 21 -27 63 -23 36 3 53 10 75 34 15 17 28
35 28 41 0 5 3 8 8 8 24 -4 72 28 72 48 0 23 -52 55 -111 69 -35 8 -70 21 -79
28 -19 16 -67 34 -100 38 -20 2 -26 9 -28 36 -2 18 1 32 7 32 6 0 10 3 9 8 -5
18 36 102 51 104 9 0 23 2 31 3 8 1 23 -5 32 -13 12 -10 32 -13 64 -9 61 6 93
41 88 94 -5 51 -30 72 -98 83 -32 5 -63 13 -70 18 -17 14 -39 19 -61 14z"/>
<path d="M1065 2350 c-38 -16 -80 -31 -83 -31 -1 1 -19 -8 -39 -19 -21 -11
-45 -20 -55 -20 -9 0 -18 -3 -20 -8 -3 -7 -53 -30 -133 -59 -41 -15 -144 -86
-158 -110 -4 -7 -12 -13 -18 -13 -5 0 -20 -11 -33 -25 -13 -14 -27 -25 -32
-25 -16 0 -54 -48 -54 -68 0 -11 7 -25 16 -33 8 -7 24 -29 35 -48 28 -52 68
-105 85 -114 8 -5 20 -18 25 -30 19 -43 65 -113 96 -147 13 -14 23 -28 23 -32
0 -4 12 -14 28 -21 19 -10 75 -15 192 -16 91 -1 185 -3 209 -5 47 -2 70 18 75
66 1 13 6 30 10 37 5 8 3 17 -5 22 -17 11 -30 11 -27 2 2 -5 -1 -9 -7 -11 -5
-1 -11 6 -13 17 -2 15 4 22 22 27 15 3 26 13 26 23 0 25 34 127 47 142 9 11 7
25 -10 62 -26 56 -46 68 -48 29 -1 -15 -1 -32 0 -39 1 -6 -2 -14 -7 -17 -12
-7 -12 21 0 68 8 33 7 43 -11 67 -22 29 -39 68 -47 104 -4 20 -8 49 -19 154
-8 76 -23 91 -70 71z m73 -320 c-2 -27 -7 -52 -11 -56 -9 -9 -28 42 -22 61 3
8 7 22 10 30 2 8 9 15 15 15 8 0 10 -18 8 -50z m117 -147 c-2 -21 -4 -38 -5
-38 -1 0 -7 -24 -13 -54 -8 -36 -19 -59 -34 -69 -22 -14 -23 -13 -23 17 0 19
6 34 15 37 10 4 15 20 15 45 0 21 5 39 10 39 6 0 10 8 10 18 0 14 17 42 26 42
1 0 0 -17 -1 -37z"/>
<path d="M2780 1169 c0 -5 -10 -9 -23 -9 -27 0 -63 -23 -96 -62 -29 -34 -58
-36 -70 -5 -5 12 -31 34 -57 48 -52 28 -130 32 -186 10 -36 -14 -92 -68 -113
-110 -23 -46 -17 -170 11 -223 10 -20 29 -56 41 -80 21 -40 79 -105 185 -204
61 -58 129 -101 155 -99 33 2 105 60 221 177 85 85 112 118 112 135 0 7 3 13
8 13 12 0 44 80 57 139 25 119 -33 225 -139 259 -54 17 -106 22 -106 11z"/>
</g>
</svg>
